HIERARCHY
ROOT Hips
{
  OFFSET 3.13124 94.3669 -3.18751
  CHANNELS  6 Xposition Yposition Zposition Zrotation Xrotation Yrotation
  JOINT LeftUpLeg
  {
    OFFSET 8.64259 1.95398 -2.38835
    CHANNELS 3 Zrotation Xrotation Yrotation
    JOINT LeftLeg
    {
      OFFSET 43.7702 0 0
      CHANNELS 3 Zrotation Xrotation Yrotation
      JOINT LeftFoot
      {
        OFFSET 40.6238 0 0
        CHANNELS 3 Zrotation Xrotation Yrotation
        JOINT LeftToeBase
        {
          OFFSET 12.7242 0 0
          CHANNELS 3 Zrotation Xrotation Yrotation
          End Site
          {
            OFFSET 0 0 0
          }
        }
      }
    }
  }
  JOINT RightUpLeg
  {
    OFFSET -8.2249 1.95398 -2.59336
    CHANNELS 3 Zrotation Xrotation Yrotation
    JOINT RightLeg
    {
      OFFSET 43.5653 0 0
      CHANNELS 3 Zrotation Xrotation Yrotation
      JOINT RightFoot
      {
        OFFSET 40.6238 0 0
        CHANNELS 3 Zrotation Xrotation Yrotation
        JOINT RightToeBase
        {
          OFFSET 12.7242 0 0
          CHANNELS 3 Zrotation Xrotation Yrotation
          End Site
          {
            OFFSET 0 0 0
          }
        }
      }
    }
  }
  JOINT Spine
  {
    OFFSET 0.165834 0.87714 6.61349
    CHANNELS 3 Zrotation Xrotation Yrotation
    JOINT Spine1
    {
      OFFSET 7.38962 1.71661e-005 0
      CHANNELS 3 Zrotation Xrotation Yrotation
      JOINT Spine2
      {
        OFFSET 11.9445 1.14441e-005 0
        CHANNELS 3 Zrotation Xrotation Yrotation
        JOINT Spine3
        {
          OFFSET 14.7254 4.19617e-005 0
          CHANNELS 3 Zrotation Xrotation Yrotation
          JOINT Spine4
          {
            OFFSET 10.9679 0 0
            CHANNELS 3 Zrotation Xrotation Yrotation
            JOINT RightShoulder
            {
              OFFSET 2.46616 -1.6653 3.69651
              CHANNELS 3 Zrotation Xrotation Yrotation
              JOINT RightArm
              {
                OFFSET 13.0012 0 0
                CHANNELS 3 Zrotation Xrotation Yrotation
                JOINT RightForeArm
                {
                  OFFSET 28.7848 1.52588e-005 0
                  CHANNELS 3 Zrotation Xrotation Yrotation
                  JOINT RightHand
                  {
                    OFFSET 26.5688 1.52588e-005 0
                    CHANNELS 3 Zrotation Xrotation Yrotation
                    End Site
                    {
                      OFFSET 0 0 0
                    }
                  }
                }
              }
            }
            JOINT LeftShoulder
            {
              OFFSET 2.38034 -1.29275 -3.75231
              CHANNELS 3 Zrotation Xrotation Yrotation
              JOINT LeftArm
              {
                OFFSET 16.3182 6.10352e-005 0
                CHANNELS 3 Zrotation Xrotation Yrotation
                JOINT LeftForeArm
                {
                  OFFSET 27.0901 0 0
                  CHANNELS 3 Zrotation Xrotation Yrotation
                  JOINT LeftHand
                  {
                    OFFSET 24.5451 1.52588e-005 0
                    CHANNELS 3 Zrotation Xrotation Yrotation
                    End Site
                    {
                      OFFSET 0 0 0
                    }
                  }
                }
              }
            }
            JOINT Neck
            {
              OFFSET 5.0226 -0.0266342 0
              CHANNELS 3 Zrotation Xrotation Yrotation
              JOINT Head
              {
                OFFSET 6.69363 2.86102e-005 0
                CHANNELS 3 Zrotation Xrotation Yrotation
                End Site
                {
                  OFFSET 0 0 0
                }
              }
            }
          }
        }
      }
    }
  }
}
MOTION
Frames:	13
Frame Time:	0.0333333
-38.2683 91.159 24.8822 86.0322 -51.2227 96.6982 179.521 37.3917 94.3349 -46.8768 -46.6192 -3.53153 62.0259 3.9173 2.28059 28.7808 1.97287e-006 3.42242e-006 171.157 -20.4137 76.1829 -3.92093 3.65274 0.167627 6.24408 3.26384 7.77145 28.7808 1.36711e-005 2.49709e-005 2.79065 6.37782 -91.0238 14.2004 4.59238 -2.99921 2.53371 4.45584 -3.19859 -20.0584 5.282 -1.47756 -0.0457109 5.282 -1.47758 88.6239 -25.3912 -111.479 19.9387 16.3032 -67.1169 -3.86483 -14.2138 -4.90685 31.5037 1.65103 0.723522 -90.0348 -44.2623 77.2342 -15.8062 -17.8698 -40.852 1.65974 -43.4391 -2.59193 49.4746 -4.31545 -13.0083 50.4233 -18.1611 -6.3258 -33.4273 -14.5324 4.71311 
-34.1343 95.6585 26.3579 88.1162 -54.2978 101.315 -179.942 29.3473 97.002 -38.4177 -47.5268 -3.96071 56.6825 6.69764 4.22162 28.7808 1.97287e-006 3.42242e-006 171.084 -19.6246 75.3026 -4.12003 11.7338 0.639484 -0.340448 0.557557 3.94132 28.7808 1.36711e-005 2.49709e-005 3.12031 6.47937 -90.9178 14.0541 5.11549 -3.6117 2.3875 4.95399 -3.83297 -20.2139 5.94803 -1.90733 -0.201273 5.94804 -1.90736 90.9134 -24.9723 -106.757 17.3771 19.9595 -81.5589 -4.13597 -20.4301 -4.95405 39.3444 -3.99851 -15.9667 -83.2457 -39.8289 87.7557 -13.6245 -19.6452 -43.4911 1.66452 -42.9515 -2.59878 43.5706 -6.1548 -18.4782 57.9049 -24.2676 -14.9203 -35.9057 -16.7389 13.3192 
-30.4343 100.924 28.0004 86.5722 -52.8828 102.818 -179.029 25.9102 99.8983 -31.2744 -41.2345 -3.31945 41.7067 6.90278 5.13007 28.7808 1.97287e-006 3.42242e-006 172.751 -19.1627 77.2201 -4.23598 15.1558 0.854527 -0.100262 2.29144 7.12057 28.7808 1.36711e-005 2.49709e-005 2.84217 5.93256 -91.2946 15.16 4.0952 -4.9232 3.48551 3.87488 -5.0983 -19.0591 5.38418 -3.46546 0.953542 5.38418 -3.46548 94.6328 -14.1522 -102.351 17.6002 20.0789 -88.4762 -3.70577 -10.4449 -4.89088 46.8202 -10.4477 -28.3562 -80.1812 -32.8954 92.5617 -12.7018 -19.9203 -37.3986 1.67008 -42.3817 -2.60667 36.4275 -1.7904 -9.22916 50.1838 -24.1493 -17.7109 -30.7018 -15.7281 13.2897 
-26.7938 105.794 29.3351 85.9486 -50.5759 102.814 -177.93 23.7773 102.316 -24.7429 -33.9732 -2.43358 17.8664 1.51893 0.033549 28.7808 1.97287e-006 3.42242e-006 171.501 -19.5047 75.3303 -4.11579 11.6348 0.620425 -1.60707 5.10687 12.6886 28.7808 1.36711e-005 2.49709e-005 2.74909 5.61918 -91.3572 15.7827 3.70799 -5.19329 4.10592 3.47547 -5.35091 -18.4203 5.10106 -3.84129 1.59231 5.10104 -3.84131 98.0367 -9.33116 -94.7918 16.572 23.5177 -97.1949 -3.10736 3.55478 -5.27911 55.9516 -13.0769 -29.0532 -79.3273 -28.7291 93.968 -8.65641 -21.9976 -31.7446 1.74035 -35.7028 -2.70104 29.9918 0.0589849 -3.87364 48.0065 -27.0557 -21.8875 -27.8931 -16.8713 16.1756 
-22.9312 110.059 30.4677 83.3574 -48.8446 101.574 -174.38 18.7125 105.121 -7.70308 -36.3386 -2.67062 -9.86208 -0.410996 -5.5286 28.7808 1.97287e-006 3.42242e-006 168.609 -19.6306 71.1279 -4.15567 12.9039 0.707368 0.292299 6.95116 15.5042 28.7808 1.36711e-005 2.49709e-005 2.80498 5.14635 -91.7216 16.7057 3.65424 -5.37192 5.02817 3.41543 -5.52709 -17.493 5.09269 -4.0272 2.51968 5.09268 -4.02723 100.036 -3.9477 -89.7833 17.9971 30.5926 -89.6652 4.33355 12.0679 -34.969 56.6158 -2.19059 -9.04893 -79.4001 -24.0459 93.5528 -4.05301 -23.8929 -25.9918 1.74055 -35.6811 -2.70132 25.9145 0.362442 -2.53634 43.8955 -28.5195 -24.4389 -23.443 -17.4958 17.0483 
-18.9043 112.853 31.3775 82.3466 -48.0573 102.34 -172.64 18.718 108.543 -4.67423 -19.7938 -1.15322 -9.5103 -4.23824 -14.2339 28.7808 1.97287e-006 3.42242e-006 164.84 -19.3672 66.2671 -3.94983 5.13581 0.249598 -1.61059 6.23573 14.836 28.7808 1.36711e-005 2.49709e-005 2.98277 4.72901 -92.4998 17.4948 3.73124 -5.93342 5.81505 3.46833 -6.09122 -16.6929 5.33938 -4.54118 3.31969 5.33935 -4.54119 101.053 -0.0126923 -86.9293 15.3508 41.1425 -89.439 12.5989 23.6533 -37.853 63.1905 -3.99992 -11.4778 -79.1624 -19.9672 93.7979 0.203764 -25.0475 -19.98 1.77912 -32.2499 -2.75031 19.0515 0.325555 -2.13685 38.9214 -27.2329 -22.5232 -20.3989 -17.6112 14.1586 
-15.0901 114.792 32.1105 82.5395 -46.9199 104.161 -171.715 20.2936 111.556 -4.96644 -28.2173 -1.8352 -6.38599 -2.0925 -8.61857 28.7808 1.97287e-006 3.42242e-006 161.471 -19.287 61.6501 -3.8641 0.466331 -0.0251617 -2.51408 5.10998 13.0137 28.7808 1.36711e-005 2.49709e-005 2.99837 4.55922 -92.7828 17.8387 3.60272 -6.49665 6.15573 3.31397 -6.64809 -16.3311 5.38498 -5.11835 3.68156 5.38498 -5.11836 102.4 3.7806 -82.1827 10.533 52.8949 -84.4409 22.9977 33.9059 -44.0959 64.4319 -4.10058 -11.4579 -77.7383 -13.5356 97.0614 1.04756 -25.2291 -18.8062 1.64224 -45.2603 -2.5664 23.5822 -1.28817 -9.56278 36.2204 -26.7638 -22.8043 -18.5161 -17.3775 13.5841 
-11.6617 115.639 32.6941 81.0629 -44.9905 104.233 -171.302 22.9851 113.119 -5.31849 -29.0326 -1.91274 -2.16232 -0.536304 -4.73612 28.7808 1.97287e-006 3.42242e-006 159.374 -18.3071 58.522 -3.82655 -2.063 -0.173818 -3.53699 3.47374 10.0898 28.7808 1.36711e-005 2.49709e-005 2.98804 4.3629 -92.7653 18.2356 3.47999 -6.75272 6.55099 3.17999 -6.89891 -15.9234 5.35175 -5.39728 4.08921 5.35175 -5.39728 103.656 7.85744 -74.4481 4.66111 60.0074 -74.7962 31.9963 38.4638 -51.2836 58.3601 -7.78214 -18.7498 -76.7574 -7.88067 99.9031 2.53253 -25.3808 -16.1564 1.68896 -40.5236 -2.63287 23.2897 -0.275248 -5.18045 36.3065 -29.6914 -26.4009 -12.5358 -18.5144 19.5974 
-8.33051 115.385 33.0146 78.5553 -42.2207 102.867 -172.176 24.7623 111.973 -5.60989 -36.0286 -2.61451 3.07601 0.862082 -1.65786 28.7808 1.97287e-006 3.42242e-006 158.761 -17.0409 57.3059 -3.82417 -2.44679 -0.190139 -1.95922 3.54124 9.88921 28.7808 1.36711e-005 2.49709e-005 2.86062 4.18487 -92.7939 18.5729 3.20718 -6.61017 6.88846 2.91371 -6.74498 -15.5834 5.04369 -5.34024 4.42922 5.04366 -5.34025 104.828 9.52899 -66.6993 -3.84091 64.3353 -62.3986 47.314 45.4088 -62.3225 53.9751 -9.86272 -24.0159 -75.9615 -2.63561 102.855 4.20495 -25.2284 -12.1877 1.7394 -35.7633 -2.69995 23.1702 -0.435428 -5.89984 38.4709 -30.5794 -26.0212 -13.2751 -19.121 19.5185 
-5.27851 114.159 33.021 76.3162 -40.1093 101.707 -173.453 25.9437 109.66 -7.02292 -45.3421 -3.82645 7.90029 2.70153 1.57798 28.7808 1.97287e-006 3.42242e-006 160.287 -14.8682 58.7089 -3.85656 0.0308046 -0.0487734 0.639221 4.63743 11.3059 28.7808 1.36711e-005 2.49709e-005 2.70794 4.02405 -92.8219 18.8804 2.80297 -6.84805 7.19373 2.4996 -6.96394 -15.2571 4.72849 -5.6948 4.75554 4.72846 -5.69482 104.725 13.1789 -64.6503 -18.9808 63.8195 -41.6626 52.4232 51.1725 -64.7162 47.4953 -12.6225 -32.9177 -75.6287 1.74763 104.832 3.4633 -23.8262 -6.73921 1.84803 -26.5472 -2.83324 27.8676 0.816445 -0.998094 36.6333 -29.109 -24.6871 -11.454 -18.3726 18.379 
-2.1118 111.856 32.7172 75.9648 -38.7558 101.622 -174.48 24.2355 106.621 -7.97584 -49.6232 -4.54822 11.959 3.34042 2.52412 28.7808 1.97287e-006 3.42242e-006 162.032 -11.877 60.4089 -3.94615 5.00637 0.244553 5.11987 3.56855 8.41545 28.7808 1.36711e-005 2.49709e-005 2.5887 4.08722 -92.9738 18.7654 2.60683 -7.10402 7.07744 2.29247 -7.21261 -15.3627 4.61784 -5.9984 4.64988 4.61783 -5.9984 104.182 16.9445 -64.3131 -25.7752 58.7032 -27.3106 57.0212 55.3006 -67.6082 34.259 -11.8785 -41.8623 -75.6906 4.6677 105.297 3.1077 -21.8815 2.47635 2.06189 -11.5255 -3.0777 26.4473 1.37159 1.31502 32.7317 -26.5468 -23.3252 -10.04 -16.9274 15.7103 
0.927346 108.818 32.2774 79.0103 -38.7976 102.758 -175.629 19.613 102.886 -14.3168 -68.1968 -10.6825 10.7151 5.27164 5.53523 28.7808 1.97287e-006 3.42242e-006 162.91 -8.73819 60.9896 -4.08218 9.79877 0.53478 13.4429 2.21855 5.08432 28.7808 1.36711e-005 2.49709e-005 2.52078 4.59705 -92.9859 17.7406 2.82041 -7.10666 6.05264 2.50587 -7.22242 -16.3907 4.82146 -5.93372 3.62197 4.82144 -5.93376 103.863 16.5805 -67.7133 -35.7666 45.6813 -23.0274 63.6024 87.0973 -69.7462 30.7674 -13.1559 -50.2545 -75.4395 6.20311 107.011 1.66624 -20.6035 7.41403 2.08777 -9.92174 -3.10629 37.1632 1.01245 -1.27193 29.749 -23.74 -22.0632 -12.5856 -15.3635 12.507 
3.65105 104.497 32.0878 83.0802 -39.9366 105.012 -176.934 11.522 98.6109 -12.2136 -65.9958 -9.48947 37.7694 1.38476 0.308157 28.7808 1.97287e-006 3.42242e-006 164.74 -5.23176 63.3571 -4.89067 12.3159 0.708788 21.8148 1.01706 2.72947 28.7808 1.36711e-005 2.49709e-005 2.56147 5.21174 -93.3715 16.4586 3.15391 -6.96488 4.77223 2.84524 -7.09695 -17.6855 5.09733 -5.70111 2.32712 5.09733 -5.70113 104.706 13.5066 -64.4231 -27.276 42.7538 -25.6154 18.2257 82.8256 -24.4745 1.78252 -1.24804 -53.9051 -74.9282 6.76272 109.043 -0.648819 -19.6805 9.82721 2.00423 -15.2665 -3.01362 53.6769 -0.745857 -5.63851 26.7408 -19.9096 -21.5923 -15.2087 -12.7301 13.0995 
